<svg id="Layer_1" data-name="Layer 1" xmlns="http://www.w3.org/2000/svg" viewBox="0 0 1024.14 884.1">
  <defs>
    <style>
      .cls-1 {
        fill: #fc0;
      }

      .cls-2 {
        fill: red;
      }

      .cls-3 {
        fill: #fff;
      }
    </style>
  </defs>
  <title>mcdonalds</title>
  <path class="cls-1" d="M646.5,178.1c53,0,96,223.52,96,499.56h77.31c0-297.19-78-537.76-173.49-537.76-54.57,0-102.78,72.08-134.61,185.32C479.83,212,431.62,139.9,377.5,139.9c-95.5,0-173.27,240.34-173.27,537.53h77.31c0-276,42.52-499.33,95.5-499.33s96,206.46,96,461.13h76.86c0-254.67,43.2-461.13,96.18-461.13" transform="translate(0.14 -139.9)"/>
  <rect class="cls-2" x="0.14" y="537.76" width="1024" height="346.35"/>
  <g>
    <path class="cls-3" d="M10.64,784.82V690.46h13.3L54.18,738.2a267.14,267.14,0,0,1,16.94,30.66l.28-.14c-1.12-12.6-1.4-24.08-1.4-38.78V690.46H81.48v94.36H69.16l-30-47.88a299.47,299.47,0,0,1-17.64-31.5l-.42.14c.7,11.9,1,23.24,1,38.92v40.32Z" transform="translate(0.14 -139.9)"/>
    <path class="cls-3" d="M109.2,753.18c.28,16.66,10.92,23.52,23.24,23.52,8.82,0,14.14-1.54,18.76-3.5l2.1,8.82c-4.34,2-11.76,4.2-22.54,4.2-20.86,0-33.32-13.72-33.32-34.16s12-36.54,31.78-36.54c22.12,0,28,19.46,28,31.92a46.44,46.44,0,0,1-.42,5.74Zm36.12-8.82c.14-7.84-3.22-20-17.08-20-12.46,0-17.92,11.48-18.9,20Z" transform="translate(0.14 -139.9)"/>
    <path class="cls-3" d="M177.8,717.06l9.66,14.56c2.52,3.78,4.62,7.28,6.86,11.06h.42c2.24-4.06,4.48-7.56,6.72-11.2L211,717.06h13.3l-23.1,32.76,23.8,35H211L201,769.56c-2.66-3.92-4.9-7.7-7.28-11.76h-.28c-2.24,4.06-4.62,7.7-7.14,11.76l-9.8,15.26H163L187,750.24l-23-33.18Z" transform="translate(0.14 -139.9)"/>
    <path class="cls-3" d="M253.54,697.6v19.46h17.64v9.38H253.54V763c0,8.4,2.38,13.16,9.24,13.16a27.41,27.41,0,0,0,7.14-.84l.56,9.24a30.15,30.15,0,0,1-10.92,1.68c-5.74,0-10.36-1.82-13.3-5.18-3.5-3.64-4.76-9.66-4.76-17.64v-37H231v-9.38h10.5V700.82Z" transform="translate(0.14 -139.9)"/>
    <path class="cls-3" d="M315.13,691.58a141.11,141.11,0,0,1,23.38-1.82c12,0,20.86,2.8,26.46,7.84,5.18,4.48,8.26,11.34,8.26,19.74S370.71,732.6,366,737.5c-6.44,6.86-16.94,10.36-28.84,10.36a41.92,41.92,0,0,1-9.8-.84v37.8H315.13Zm12.18,45.5a40.84,40.84,0,0,0,10.08,1c14.7,0,23.66-7.14,23.66-20.16,0-12.46-8.82-18.48-22.26-18.48a51.15,51.15,0,0,0-11.48,1Z" transform="translate(0.14 -139.9)"/>
    <path class="cls-3" d="M388.49,685.42h12.32v99.4H388.49Z" transform="translate(0.14 -139.9)"/>
    <path class="cls-3" d="M459.05,784.82l-1-8.54h-.42a25.24,25.24,0,0,1-20.72,10.08c-13.72,0-20.72-9.66-20.72-19.46,0-16.38,14.56-25.34,40.74-25.2v-1.4c0-5.6-1.54-15.68-15.4-15.68a33.76,33.76,0,0,0-17.64,5l-2.8-8.12c5.6-3.64,13.72-6,22.26-6,20.72,0,25.76,14.14,25.76,27.72v25.34a95.38,95.38,0,0,0,1.12,16.24Zm-1.82-34.58c-13.44-.28-28.7,2.1-28.7,15.26,0,8,5.32,11.76,11.62,11.76a16.86,16.86,0,0,0,16.38-11.34,12.86,12.86,0,0,0,.7-3.92Z" transform="translate(0.14 -139.9)"/>
    <path class="cls-3" d="M489,735.4c0-7-.14-12.74-.56-18.34h10.92l.7,11.2h.28c3.36-6.44,11.2-12.74,22.4-12.74,9.38,0,23.94,5.6,23.94,28.84v40.46H534.37V745.76c0-10.92-4.06-20-15.68-20a17.5,17.5,0,0,0-16.52,12.6,17.71,17.71,0,0,0-.84,5.74v40.74H489Z" transform="translate(0.14 -139.9)"/>
    <path class="cls-3" d="M573.57,753.18c.28,16.66,10.92,23.52,23.24,23.52,8.82,0,14.14-1.54,18.76-3.5l2.1,8.82c-4.34,2-11.76,4.2-22.54,4.2-20.86,0-33.32-13.72-33.32-34.16s12-36.54,31.78-36.54c22.12,0,28,19.46,28,31.92a46.53,46.53,0,0,1-.42,5.74Zm36.12-8.82c.14-7.84-3.22-20-17.08-20-12.46,0-17.92,11.48-18.9,20Z" transform="translate(0.14 -139.9)"/>
    <path class="cls-3" d="M651.69,697.6v19.46h17.64v9.38H651.69V763c0,8.4,2.38,13.16,9.24,13.16a27.41,27.41,0,0,0,7.14-.84l.56,9.24a30.15,30.15,0,0,1-10.92,1.68c-5.74,0-10.36-1.82-13.3-5.18-3.5-3.64-4.76-9.66-4.76-17.64v-37h-10.5v-9.38h10.5V700.82Z" transform="translate(0.14 -139.9)"/>
    <path class="cls-3" d="M793.93,736.66c0,32.48-19.74,49.7-43.82,49.7-24.92,0-42.42-19.32-42.42-47.88,0-30,18.62-49.56,43.82-49.56C777.27,688.92,793.93,708.66,793.93,736.66Zm-73.22,1.54c0,20.16,10.92,38.22,30.1,38.22S781,758.64,781,737.22c0-18.76-9.8-38.36-30.1-38.36S720.71,717.48,720.71,738.2Z" transform="translate(0.14 -139.9)"/>
    <path class="cls-3" d="M809.33,735.4c0-7-.14-12.74-.56-18.34h10.92l.7,11.2h.28c3.36-6.44,11.2-12.74,22.4-12.74,9.38,0,23.94,5.6,23.94,28.84v40.46H854.69V745.76c0-10.92-4.06-20-15.68-20a17.5,17.5,0,0,0-16.52,12.6,17.72,17.72,0,0,0-.84,5.74v40.74H809.33Z" transform="translate(0.14 -139.9)"/>
    <path class="cls-3" d="M28.56,868.82H-.14V858.46H69.72v10.36H40.88v84H28.56Z" transform="translate(0.14 -139.9)"/>
    <path class="cls-3" d="M78.82,853.42H91.14V895.7h.28a22.86,22.86,0,0,1,8.82-8.68,25.36,25.36,0,0,1,12.6-3.5c9.1,0,23.66,5.6,23.66,29v40.32H124.18V913.9c0-10.92-4.06-20.16-15.68-20.16-8,0-14.28,5.6-16.52,12.32a14.91,14.91,0,0,0-.84,5.88v40.88H78.82Z" transform="translate(0.14 -139.9)"/>
    <path class="cls-3" d="M163.38,921.18c.28,16.66,10.92,23.52,23.24,23.52,8.82,0,14.14-1.54,18.76-3.5l2.1,8.82c-4.34,2-11.76,4.2-22.54,4.2-20.86,0-33.32-13.72-33.32-34.16s12-36.54,31.78-36.54c22.12,0,28,19.46,28,31.92a46.44,46.44,0,0,1-.42,5.74Zm36.12-8.82c.14-7.84-3.22-20-17.08-20-12.46,0-17.92,11.48-18.9,20Z" transform="translate(0.14 -139.9)"/>
    <path class="cls-3" d="M256.76,859.72a126.88,126.88,0,0,1,23.38-2c13,0,21.42,2.38,27.3,7.7,4.76,4.2,7.42,10.64,7.42,17.92,0,12.46-7.84,20.72-17.78,24.08v.42c7.28,2.52,11.62,9.24,13.86,19,3.08,13.16,5.32,22.26,7.28,25.9h-12.6c-1.54-2.66-3.64-10.78-6.3-22.54-2.8-13-7.84-17.92-18.9-18.34H268.94v40.88H256.76Zm12.18,43H281.4c13,0,21.28-7.14,21.28-17.92,0-12.18-8.82-17.5-21.7-17.64a50.13,50.13,0,0,0-12,1.12Z" transform="translate(0.14 -139.9)"/>
    <path class="cls-3" d="M346.78,866c.14,4.2-2.94,7.56-7.84,7.56a7.33,7.33,0,0,1-7.42-7.56,7.51,7.51,0,0,1,7.7-7.7C343.84,858.32,346.78,861.68,346.78,866Zm-13.72,86.8V885.06h12.32v67.76Z" transform="translate(0.14 -139.9)"/>
    <path class="cls-3" d="M424.19,885.06c-.28,4.9-.56,10.36-.56,18.62V943c0,15.54-3.08,25.06-9.66,30.94-6.58,6.16-16.1,8.12-24.64,8.12-8.12,0-17.08-2-22.54-5.6l3.08-9.38a38.21,38.21,0,0,0,19.88,5.32c12.6,0,21.84-6.58,21.84-23.66V941.2h-.28c-3.78,6.3-11.06,11.34-21.56,11.34-16.8,0-28.84-14.28-28.84-33,0-23,15-36,30.52-36,11.76,0,18.2,6.16,21.14,11.76h.28l.56-10.22ZM411.46,911.8a17.55,17.55,0,0,0-.7-5.6c-2.24-7.14-8.26-13-17.22-13-11.76,0-20.16,9.94-20.16,25.62,0,13.3,6.72,24.36,20,24.36a18,18,0,0,0,17.08-12.6,21.45,21.45,0,0,0,1-6.58Z" transform="translate(0.14 -139.9)"/>
    <path class="cls-3" d="M444.07,853.42h12.32V895.7h.28a22.86,22.86,0,0,1,8.82-8.68,25.36,25.36,0,0,1,12.6-3.5c9.1,0,23.66,5.6,23.66,29v40.32H489.43V913.9c0-10.92-4.06-20.16-15.68-20.16-8,0-14.28,5.6-16.52,12.32a14.91,14.91,0,0,0-.84,5.88v40.88H444.07Z" transform="translate(0.14 -139.9)"/>
    <path class="cls-3" d="M536.05,865.6v19.46h17.64v9.38H536.05V931c0,8.4,2.38,13.16,9.24,13.16a27.41,27.41,0,0,0,7.14-.84l.56,9.24a30.15,30.15,0,0,1-10.92,1.68c-5.74,0-10.36-1.82-13.3-5.18-3.5-3.64-4.76-9.66-4.76-17.64v-37h-10.5v-9.38H524V868.82Z" transform="translate(0.14 -139.9)"/>
    <path class="cls-3" d="M564.61,896.26c0-5.18,3.5-8.82,8.4-8.82s8.12,3.64,8.26,8.82c0,4.9-3.22,8.68-8.4,8.68C568,904.94,564.61,901.16,564.61,896.26Zm0,49.42c0-5.18,3.5-8.82,8.4-8.82s8.12,3.64,8.26,8.82c0,4.9-3.22,8.68-8.4,8.68C568,954.36,564.61,950.58,564.61,945.68Z" transform="translate(0.14 -139.9)"/>
    <path class="cls-3" d="M626.63,859.58A141.11,141.11,0,0,1,650,857.76c12,0,20.86,2.8,26.46,7.84,5.18,4.48,8.26,11.34,8.26,19.74s-2.52,15.26-7.28,20.16c-6.44,6.86-16.94,10.36-28.84,10.36a41.91,41.91,0,0,1-9.8-.84v37.8H626.63Zm12.18,45.5a40.82,40.82,0,0,0,10.08,1c14.7,0,23.66-7.14,23.66-20.16,0-12.46-8.82-18.48-22.26-18.48a51.14,51.14,0,0,0-11.48,1Z" transform="translate(0.14 -139.9)"/>
    <path class="cls-3" d="M734.57,952.82l-1-8.54h-.42a25.24,25.24,0,0,1-20.72,10.08c-13.72,0-20.72-9.66-20.72-19.46,0-16.38,14.56-25.34,40.74-25.2v-1.4c0-5.6-1.54-15.68-15.4-15.68a33.76,33.76,0,0,0-17.64,5l-2.8-8.12c5.6-3.64,13.72-6,22.26-6,20.72,0,25.76,14.14,25.76,27.72v25.34a95.43,95.43,0,0,0,1.12,16.24Zm-1.82-34.58c-13.44-.28-28.7,2.1-28.7,15.26,0,8,5.32,11.76,11.62,11.76A16.86,16.86,0,0,0,732,933.92a12.86,12.86,0,0,0,.7-3.92Z" transform="translate(0.14 -139.9)"/>
    <path class="cls-3" d="M764.53,906.2c0-8-.14-14.84-.56-21.14h10.78l.42,13.3h.56c3.08-9.1,10.5-14.84,18.76-14.84a13.31,13.31,0,0,1,3.5.42v11.62a18.49,18.49,0,0,0-4.2-.42c-8.68,0-14.84,6.58-16.52,15.82a34.64,34.64,0,0,0-.56,5.74v36.12H764.53Z" transform="translate(0.14 -139.9)"/>
    <path class="cls-3" d="M828.51,865.6v19.46h17.64v9.38H828.51V931c0,8.4,2.38,13.16,9.24,13.16a27.41,27.41,0,0,0,7.14-.84l.56,9.24a30.15,30.15,0,0,1-10.92,1.68c-5.74,0-10.36-1.82-13.3-5.18-3.5-3.64-4.76-9.66-4.76-17.64v-37H806v-9.38h10.5V868.82Z" transform="translate(0.14 -139.9)"/>
    <path class="cls-3" d="M920.49,918.38c0,25.06-17.36,36-33.74,36-18.34,0-32.48-13.44-32.48-34.86,0-22.68,14.84-36,33.6-36C907.33,883.52,920.49,897.66,920.49,918.38Zm-53.76.7c0,14.84,8.54,26,20.58,26,11.76,0,20.58-11.06,20.58-26.32,0-11.48-5.74-26-20.3-26S866.73,906.2,866.73,919.08Z" transform="translate(0.14 -139.9)"/>
    <path class="cls-3" d="M948.21,916.14h.28c1.68-2.38,4.06-5.32,6-7.7l19.88-23.38h14.84L963,912.92l29.82,39.9h-15l-23.38-32.48-6.3,7v25.48H936v-99.4h12.18Z" transform="translate(0.14 -139.9)"/>
  </g>
</svg>
