<?xml version="1.0" encoding="iso-8859-1"?>
<!-- Generator: Adobe Illustrator 19.0.0, SVG Export Plug-In . SVG Version: 6.00 Build 0)  -->
<svg xmlns="http://www.w3.org/2000/svg" xmlns:xlink="http://www.w3.org/1999/xlink" version="1.1" id="Capa_1" x="0px" y="0px" viewBox="0 0 480 480" style="enable-background:new 0 0 480 480;" xml:space="preserve" width="512px" height="512px">
<g>
	<g>
		<path d="M448.022,0h-56c-2.122,0-4.156,0.844-5.656,2.344L235.718,152.992c-0.128-0.072-0.208-0.192-0.344-0.256l-35.352-16.32    V136h-0.904l-67.744-31.264c-4.012-1.851-8.765-0.1-10.616,3.912s-0.1,8.765,3.912,10.616l59.352,27.392V168h-128    c-30.913,0.035-55.965,25.087-56,56v104c0,30.928,25.072,56,56,56c30.928,0,56-25.072,56-56v-88c0-13.255,10.745-24,24-24h38.928    c-21.384,11.054-35.821,32.073-38.464,56h-0.464c-4.418,0-8,3.582-8,8v192c0,4.418,3.582,8,8,8h208c4.418,0,8-3.582,8-8V280    c0-4.418-3.582-8-8-8h-0.424c-3.012-27.459-21.512-50.753-47.576-59.904V176c-0.025-3.332-2.113-6.299-5.24-7.448L411.334,48    h36.688c4.418,0,8-3.582,8-8V8C456.022,3.582,452.44,0,448.022,0z M264.022,147.312L276.71,160l-8,8h-25.376L264.022,147.312z     M200.022,154.04l23.704,10.944L220.71,168h-20.688V154.04z M200.022,184h80v24h-80V184z M136.022,200    c-22.08,0.026-39.974,17.92-40,40v88c0,22.091-17.909,40-40,40s-40-17.909-40-40V224c0.026-22.08,17.92-39.974,40-40h128v16    H136.022z M336.022,464h-192V288h192V464z M327.494,272H152.55c3.861-27.498,27.368-47.963,55.136-48h64.672    C300.126,224.037,323.633,244.502,327.494,272z M440.022,32h-32c-2.122,0-4.156,0.844-5.656,2.344L288.022,148.688L275.334,136    l120-120h44.688V32z" fill="#FFDA44"/>
	</g>
</g>
<g>
	<g>
		<path d="M477.358,125.16l-22.056-48.472c-1.832-4.021-6.576-5.795-10.597-3.963c-1.756,0.8-3.163,2.207-3.963,3.963l-22.056,48.48    c-5.233,11.644-2.466,25.328,6.88,34.024c12.691,11.676,32.213,11.676,44.904,0C479.823,150.497,482.593,136.808,477.358,125.16z     M459.502,147.552c-6.49,5.977-16.478,5.977-22.968,0c-4.414-3.968-5.745-10.341-3.288-15.744l14.776-32.488l14.776,32.48    C465.244,137.208,463.911,143.578,459.502,147.552z" fill="#FFDA44"/>
	</g>
</g>
<g>
	<g>
		<rect x="304.022" y="304" width="16" height="144" fill="#FFDA44"/>
	</g>
</g>
<g>
</g>
<g>
</g>
<g>
</g>
<g>
</g>
<g>
</g>
<g>
</g>
<g>
</g>
<g>
</g>
<g>
</g>
<g>
</g>
<g>
</g>
<g>
</g>
<g>
</g>
<g>
</g>
<g>
</g>
</svg>
