<svg display="none">

  <symbol id="saturn" xmlns="http://www.w3.org/2000/svg" viewBox="0 0 587.934 587.935">
     <circle cx="388.427" cy="151.281" r="54.879"/>
     <circle cx="97.565" cy="293.121" r="27.444"/>
     <path d="M49.6,474.847c36.796,0,92.632-9.524,146.507-21.907c24.997,23.858,58.781,38.594,96.065,38.594
         c68.821,0,125.842-49.954,137.135-115.554c96.333-39.598,170.433-81.08,157.064-123.872c-0.086-0.287-0.191-0.574-0.307-0.851
         c-4.504-10.892-18.321-15.75-44.8-15.759c-46.828,0-119.876,15.176-122.965,15.816c-5.039,1.052-8.481,5.719-8.013,10.844
         s4.704,9.084,9.85,9.208c32.378,0.765,60.329,7.774,63.686,13.455c-3.251,7.411-25.618,20.99-56.046,35.955
         c-14.276-61.764-69.51-107.865-135.615-107.865c-76.939,0-139.306,62.367-139.306,139.306c0,20.942,4.752,40.727,13.024,58.542
         c-15.348,2.888-29.567,4.724-41.081,4.724c-10.806,0-16.352-1.616-19.077-2.936c0.717-3.299,5.489-14.735,36.452-36.232
         c2.792-1.807,4.647-4.953,4.647-8.52c0-5.518-4.389-10.146-9.869-10.146c-0.095,0-0.191,0-0.277,0
         c-0.334,0-0.66,0.029-0.994,0.067c-0.555,0.058-1.1,0.162-1.635,0.306c-11.561,2.831-103.533,26.46-127.841,66.861
         c-5.938,9.868-7.621,20.062-5.02,30.304C5.679,472.81,30.972,474.847,49.6,474.847z"/>
     </symbol>

     <symbol version="1.1" id="waves" xmlns="http://www.w3.org/2000/svg" xmlns:xlink="http://www.w3.org/1999/xlink"  x="0px" y="0px"
     	 viewBox="0 0 90 90">
     	<path d="M8.219,26.79c8.736-7.502,15.637-13.433,34.359-2.854c8.994,5.081,16.249,6.999,22.289,6.998
     		c10.575,0,17.426-5.883,23.352-10.975c2.113-1.814,2.385-5.035,0.607-7.194s-4.932-2.438-7.045-0.621
     		c-8.735,7.505-15.635,13.434-34.363,2.853c-24.739-13.975-36.326-4.02-45.637,3.977c-2.112,1.815-2.385,5.036-0.607,7.195
     		C2.951,28.327,6.105,28.606,8.219,26.79z M81.781,37.678c-8.735,7.503-15.635,13.433-34.363,2.853
     		C22.679,26.555,11.092,36.51,1.781,44.508c-2.112,1.816-2.385,5.037-0.607,7.193c1.777,2.159,4.932,2.438,7.045,0.622
     		c8.736-7.503,15.637-13.433,34.359-2.855c8.994,5.081,16.249,7,22.289,7c10.575,0,17.426-5.884,23.352-10.975
     		c2.113-1.816,2.385-5.037,0.607-7.194C87.049,36.138,83.895,35.861,81.781,37.678z M81.781,63.209
     		c-8.735,7.504-15.635,13.433-34.363,2.854C22.679,52.087,11.092,62.042,1.781,70.04c-2.112,1.815-2.385,5.037-0.607,7.196
     		c1.777,2.156,4.932,2.436,7.045,0.62C16.955,70.351,23.855,64.424,42.578,75c8.994,5.083,16.249,7,22.289,7
     		c10.575,0,17.426-5.884,23.352-10.974c2.113-1.815,2.385-5.038,0.607-7.196C87.048,61.672,83.895,61.395,81.781,63.209z"/>
        </symbol>

    <symbol version="1.1" id="city" xmlns="http://www.w3.org/2000/svg" xmlns:xlink="http://www.w3.org/1999/xlink" x="0px" y="0px"
    	 viewBox="0 0 512 512">
    		<path d="M0,490.667v10.667C0,507.224,4.776,512,10.667,512h490.667c5.891,0,10.667-4.776,10.667-10.667v-10.667H0z"/>
    		<path d="M202.667,192H32c-5.891,0-10.667,4.776-10.667,10.667v298.667C21.333,507.224,26.109,512,32,512h170.667
    			c5.891,0,10.667-4.776,10.667-10.667V202.667C213.333,196.776,208.558,192,202.667,192z M192,490.667H42.667V213.333H192V490.667z
    			"/>
    		<path d="M480,64H309.333c-5.891,0-10.667,4.776-10.667,10.667v426.667c0,5.891,4.776,10.667,10.667,10.667H480
    			c5.891,0,10.667-4.776,10.667-10.667V74.667C490.667,68.776,485.891,64,480,64z M469.333,490.667H320V85.333h149.333V490.667z"/>
    		<path d="M405.333,0h-288c-5.891,0-10.667,4.776-10.667,10.667v160H128V21.333h266.667v21.333H416v-32
    			C416,4.776,411.224,0,405.333,0z"/>
    		<rect x="64" y="234.667" width="21.333" height="192"/>
    		<rect x="106.667" y="234.667" width="21.333" height="192"/>
    		<rect x="149.333" y="234.667" width="21.333" height="192"/>
    		<rect x="309.333" y="117.333" width="117.333" height="21.333"/>
    		<rect x="309.333" y="170.667" width="117.333" height="21.333"/>
    		<rect x="309.333" y="224" width="117.333" height="21.333"/>
    		<rect x="309.333" y="277.333" width="117.333" height="21.333"/>
    		<rect x="309.333" y="330.667" width="117.333" height="21.333"/>
    		<rect x="309.333" y="384" width="117.333" height="21.333"/>
    		<rect x="160" y="53.333" width="21.333" height="32"/>
    		<rect x="160" y="117.333" width="21.333" height="32"/>
    		<rect x="202.667" y="117.333" width="21.333" height="32"/>
    		<rect x="202.667" y="53.333" width="21.333" height="32"/>
    		<rect x="245.333" y="53.333" width="21.333" height="32"/>
    		<rect x="245.333" y="117.333" width="21.333" height="32"/>
    		<rect x="245.333" y="181.333" width="21.333" height="32"/>
    		<rect x="245.333" y="245.333" width="21.333" height="32"/>
    		<rect x="245.333" y="309.333" width="21.333" height="32"/>
    		<rect x="245.333" y="373.333" width="21.333" height="32"/>
    		<path d="M405.333,437.333H352c-5.891,0-10.667,4.776-10.667,10.667v53.333h21.333v-42.667h32v42.667H416V448
    			C416,442.109,411.224,437.333,405.333,437.333z"/>
    		<path d="M160,448H74.667C68.776,448,64,452.776,64,458.667v42.667h21.333v-32h64v32h21.333v-42.667
    			C170.667,452.776,165.891,448,160,448z"/>
    </symbol>
</svg>
