<svg id="Layer_1" data-name="Layer 1" xmlns="http://www.w3.org/2000/svg" viewBox="0 0 1006.55 409.14">
  <defs>
    <style>
      .cls-1, .cls-3 {
        fill: none;
        stroke: aqua;
        stroke-miterlimit: 10;
      }

      .cls-1 {
        stroke-width: 4px;
      }

      .cls-2 {
        fill: lime;
      }

      .cls-3 {
        stroke-width: 2px;
      }

      .cls-4 {
        fill: #8B008B;
      }

      .cls-5 {
        fill: #d80027;
      }

      .cls-6 {
        fill: #ffae00;
      }

      .cls-7 {
        fill: aqua;
      }

      .cls-8 {
        fill: #fbb03b;
      }


      @keyframes animateOil {
        0% {transform: scaleY(1);}
        50% {transform: scaleY(1.02);}
        100% {transform: scaleY(1);}
      }

      .oil {
        fill-opacity: 1;
        fill: #8B008B;
        stroke-opacity: 0;
        animation-name: animateOil;
        animation-duration: .4s;
        animation-iteration-count: infinite;
        transform: scaleX(.2);

      }

      @keyframes animateGas {
        0% {transform: scaleY(1.0);}
        50% {transform: scaleY(1.05);}
        100% {transform: scaleY(1.0);}
      }

      .gas {
        fill-opacity: 1;
        fill: #d80027;
        stroke-opacity: 0;
        animation-name: animateGas;
        animation-duration: .4s;
        animation-iteration-count: infinite;
        transform: scaleX(.2);

      }

      @keyframes animateO2 {
        0% {transform: scaleY(1.0);}
        50% {transform: scaleY(1.03);}
        100% {transform: scaleY(1.0);}
      }

      .o2 {
        fill-opacity: 1;
        fill: lime;
        stroke-opacity: 0;
        animation-name: animateO2;
        animation-duration: .4s;
        animation-iteration-count: infinite;
        transform: scaleX(.2);

      }


    </style>
  </defs>
  <title>dashboard</title>
  <rect class="cls-1" x="2" y="2" width="1002.55" height="405.14" rx="12" ry="12"/>
  <g>
    <path class="cls-2" d="M43.28,340.81a3.4,3.4,0,0,1-.31,1.68,1.27,1.27,0,0,1-1.06.36,1.21,1.21,0,0,1-.92-.33,1.34,1.34,0,0,1-.31-1q0-.54,0-.83l.18-5.8a1.33,1.33,0,0,1,.35-.94,1.42,1.42,0,0,1,1-.29H57.5a1.42,1.42,0,0,1,1,.29,1.27,1.27,0,0,1,.33.94l.19,5.8q0,.32,0,.6t0,.26a1.22,1.22,0,0,1-.33.94,1.43,1.43,0,0,1-1,.31,1.13,1.13,0,0,1-1-.36,3.5,3.5,0,0,1-.3-1.68l-.18-4.57h-5v15.84h3.39a1.62,1.62,0,0,1,1.07.29,1.16,1.16,0,0,1,.33.92,1.29,1.29,0,0,1-.32.94,1.22,1.22,0,0,1-.91.33H44.93a1.22,1.22,0,0,1-.91-.33,1.29,1.29,0,0,1-.32-.94,1.14,1.14,0,0,1,.34-.93,1.87,1.87,0,0,1,1.17-.28H48.5V336.23h-5Z" transform="translate(-6.8 -316.73)"/>
    <path class="cls-2" d="M65.51,347.2a5.37,5.37,0,0,0,1.71,3.92,6.28,6.28,0,0,0,4.3,1.38,11,11,0,0,0,4.48-1.1,12.14,12.14,0,0,1,2.94-1.1,1.23,1.23,0,0,1,.88.33,1.09,1.09,0,0,1,.35.83,1.38,1.38,0,0,1-.37.93,3.83,3.83,0,0,1-1.18.82A17.93,17.93,0,0,1,75,354.54a15.75,15.75,0,0,1-3.72.45,8.88,8.88,0,0,1-6.42-2.31,8.1,8.1,0,0,1-2.41-6.13A8.26,8.26,0,0,1,65,340.26a9.28,9.28,0,0,1,6.64-2.41,8.73,8.73,0,0,1,6.15,2.25,7.14,7.14,0,0,1,2.44,5.45,1.65,1.65,0,0,1-.41,1.32,4.42,4.42,0,0,1-2.24.33H65.51Zm.09-2.3H77a5.11,5.11,0,0,0-1.75-3.37,5.41,5.41,0,0,0-3.65-1.27,6.27,6.27,0,0,0-3.94,1.23A5.81,5.81,0,0,0,65.6,344.9Z" transform="translate(-6.8 -316.73)"/>
    <path class="cls-2" d="M91.34,352.07h5.84a1.49,1.49,0,0,1,1,.29,1.18,1.18,0,0,1,.33.92,1.29,1.29,0,0,1-.31,1,1.75,1.75,0,0,1-1.13.27H85.57a1.5,1.5,0,0,1-1-.32,1.21,1.21,0,0,1-.35-.95,1.12,1.12,0,0,1,.36-.91,1.73,1.73,0,0,1,1.12-.3h3.06V340.79h-1.2a5,5,0,0,1-2.13-.27,1.08,1.08,0,0,1-.42-1,1.16,1.16,0,0,1,.34-.92,1.54,1.54,0,0,1,1-.31h4a1.19,1.19,0,0,1,.72.18.63.63,0,0,1,.25.54v3a12.26,12.26,0,0,1,3.48-3.11,7.82,7.82,0,0,1,3.9-1,4.58,4.58,0,0,1,2.53.63,1.88,1.88,0,0,1,1,1.62,1.61,1.61,0,0,1-.48,1.15,1.46,1.46,0,0,1-1.06.5,3.45,3.45,0,0,1-1.36-.54,3.6,3.6,0,0,0-1.71-.54,5.39,5.39,0,0,0-2.89,1,16.81,16.81,0,0,0-3.37,3.09Z" transform="translate(-6.8 -316.73)"/>
    <path class="cls-2" d="M112.94,352.07h5.84a1.49,1.49,0,0,1,1,.29,1.18,1.18,0,0,1,.33.92,1.29,1.29,0,0,1-.31,1,1.75,1.75,0,0,1-1.13.27h-11.5a1.5,1.5,0,0,1-1-.32,1.21,1.21,0,0,1-.35-.95,1.12,1.12,0,0,1,.36-.91,1.73,1.73,0,0,1,1.12-.3h3.06V340.79h-1.2a5,5,0,0,1-2.13-.27,1.08,1.08,0,0,1-.42-1,1.16,1.16,0,0,1,.34-.92,1.54,1.54,0,0,1,1-.31h4a1.19,1.19,0,0,1,.72.18.63.63,0,0,1,.25.54v3a12.26,12.26,0,0,1,3.48-3.11,7.82,7.82,0,0,1,3.9-1,4.58,4.58,0,0,1,2.53.63,1.88,1.88,0,0,1,1,1.62,1.61,1.61,0,0,1-.48,1.15,1.46,1.46,0,0,1-1.06.5,3.45,3.45,0,0,1-1.36-.54,3.6,3.6,0,0,0-1.71-.54,5.39,5.39,0,0,0-2.89,1,16.81,16.81,0,0,0-3.37,3.09Z" transform="translate(-6.8 -316.73)"/>
    <path class="cls-2" d="M140.31,352.32a10.59,10.59,0,0,1-3.14,2,9.23,9.23,0,0,1-3.49.69,6,6,0,0,1-4.23-1.46,4.89,4.89,0,0,1-1.61-3.8,5,5,0,0,1,2.14-4.31,10.18,10.18,0,0,1,6-1.53A16.3,16.3,0,0,1,138,344a17.19,17.19,0,0,1,2.13.41v-.12a3.45,3.45,0,0,0-4-4,7.73,7.73,0,0,0-3.06.74,7.5,7.5,0,0,1-2.23.74,1,1,0,0,1-.84-.41,1.64,1.64,0,0,1-.33-1.06q0-1,1.94-1.76a14.47,14.47,0,0,1,5-.72,6.36,6.36,0,0,1,4.68,1.57,6.28,6.28,0,0,1,1.58,4.65v8h.86a3.53,3.53,0,0,1,1.67.26,1,1,0,0,1,.42.95,1.21,1.21,0,0,1-.35.95,1.53,1.53,0,0,1-1.05.32h-2.76a1.13,1.13,0,0,1-.81-.3,1.54,1.54,0,0,1-.42-.86Zm-.14-5.54a12.65,12.65,0,0,0-1.87-.47,11,11,0,0,0-1.8-.15,8.47,8.47,0,0,0-4.27.91,2.76,2.76,0,0,0-1.56,2.46,2.41,2.41,0,0,0,1,2,3.88,3.88,0,0,0,2.49.77,7.78,7.78,0,0,0,4.14-1.17q1.91-1.17,1.91-2.43Z" transform="translate(-6.8 -316.73)"/>
    <path class="cls-2" d="M159.5,352.07h5.64a1.49,1.49,0,0,1,1,.29,1.18,1.18,0,0,1,.33.92,1.29,1.29,0,0,1-.31,1,1.75,1.75,0,0,1-1.13.27H151.42a1.53,1.53,0,0,1-1.05-.32,1.21,1.21,0,0,1-.35-.95,1.11,1.11,0,0,1,.37-.91,1.73,1.73,0,0,1,1.11-.3h5.36V340.79h-3.44a1.66,1.66,0,0,1-1.1-.32,1.35,1.35,0,0,1,0-1.85,1.57,1.57,0,0,1,1.05-.31h5.15a1.27,1.27,0,0,1,.75.19.61.61,0,0,1,.27.53Zm-3.25-18.83a5.07,5.07,0,0,1,.34-2.39,1.71,1.71,0,0,1,1.47-.49,1.88,1.88,0,0,1,1.44.41,3.45,3.45,0,0,1,.35,2,3.28,3.28,0,0,1-.33,1.87,2.06,2.06,0,0,1-1.47.36,2.22,2.22,0,0,1-1.47-.33A2,2,0,0,1,156.25,333.25Z" transform="translate(-6.8 -316.73)"/>
    <path class="cls-2" d="M172.93,352.07V340.81h-.33a3.36,3.36,0,0,1-1.64-.28,1.07,1.07,0,0,1-.45-1,1.12,1.12,0,0,1,.37-.94,2,2,0,0,1,1.2-.29h2.51a1.23,1.23,0,0,1,.74.19.62.62,0,0,1,.26.53v1.2a9.65,9.65,0,0,1,2.54-1.77,6.24,6.24,0,0,1,2.61-.57,5.39,5.39,0,0,1,4.17,1.65,6.49,6.49,0,0,1,1.52,4.57v8h.83a2.17,2.17,0,0,1,1.27.29,1.07,1.07,0,0,1,.39.92,1.11,1.11,0,0,1-.41,1,2.7,2.7,0,0,1-1.47.29h-3.89a2.55,2.55,0,0,1-1.44-.26,1.26,1.26,0,0,1-.32-1,1.09,1.09,0,0,1,.37-.95,2.6,2.6,0,0,1,1.4-.26h.62v-7.31a4.67,4.67,0,0,0-.93-3.14,3.39,3.39,0,0,0-2.71-1.08,4.65,4.65,0,0,0-3.17,1.21,3.85,3.85,0,0,0-1.37,3v7.31h.62a2.65,2.65,0,0,1,1.42.26,1.09,1.09,0,0,1,.37.95,1.26,1.26,0,0,1-.32,1,2.82,2.82,0,0,1-1.55.26H172a1.63,1.63,0,0,1-1.08-.31,1.19,1.19,0,0,1-.36-1,1,1,0,0,1,.41-1,3.42,3.42,0,0,1,1.61-.25Z" transform="translate(-6.8 -316.73)"/>
  </g>
  <line class="cls-3" x1="225.41" y1="2" x2="225.41" y2="407.14"/>
  <line class="cls-3" x1="683.39" y1="2" x2="683.39" y2="407.14"/>
  <path class="cls-4" d="M775.24,340.88h-7a1,1,0,0,0-.71.29L748.66,360l0,0-4.43-2v-.05h-.11L735.6,354a1,1,0,0,0-.84,1.82l7.43,3.43v2.67h-16a7,7,0,0,0-7,7v13a7,7,0,1,0,14,0v-11a3,3,0,0,1,3-3h4.87a9,9,0,0,0-4.82,7h-.06a1,1,0,0,0-1,1v24a1,1,0,0,0,1,1h26a1,1,0,0,0,1-1v-24a1,1,0,0,0-1-1h-.05a9,9,0,0,0-6-7.5v-4.52a1,1,0,0,0-.66-.93l15.09-15.09h4.59a1,1,0,0,0,1-1v-4A1,1,0,0,0,775.24,340.88Zm-23,18.44,1.59,1.59-1,1h-3.18Zm-8,.84,3,1.37-.38.38h-2.59Zm0,3.75h10v3h-10Zm-8,2a5,5,0,0,0-5,5v11a5,5,0,1,1-10,0v-13a5,5,0,0,1,5-5h16v2Zm25,33.05h-24v-22h24Zm-1.07-24h-21.9a7,7,0,0,1,6.9-6h8.1A7,7,0,0,1,760.15,374.93Zm14.09-30h-4a1,1,0,0,0-.71.29L755.21,359.5l-1.59-1.59,15-15h5.59Z" transform="translate(-6.8 -316.73)"/>
  <path class="cls-4" d="M778.91,356.55l-2.76-6.07a1,1,0,0,0-1.82,0l-2.76,6.07a3.73,3.73,0,0,0,.86,4.26,4.15,4.15,0,0,0,5.62,0A3.73,3.73,0,0,0,778.91,356.55Zm-2.24,2.8a2.12,2.12,0,0,1-2.88,0,1.7,1.7,0,0,1-.41-2l1.85-4.07,1.85,4.07A1.71,1.71,0,0,1,776.67,359.35Z" transform="translate(-6.8 -316.73)"/>
  <rect class="cls-4" x="750.41" y="62.21" width="2" height="18.03"/>
  <g>
    <path class="cls-5" d="M870.57,359l-9.31-10.37a1.84,1.84,0,0,0-2.81,0,2.39,2.39,0,0,0,0,3.13l5.82,6.49v24.9a3.54,3.54,0,1,1-7,0v-6.09a8.26,8.26,0,0,0-5.5-8V351.69c0-4.56-3.33-8.26-7.41-8.26H830.77c-4.09,0-7.41,3.71-7.41,8.26V394h-2.59a2.22,2.22,0,0,0,0,4.42h33.57a2.22,2.22,0,0,0,0-4.42h-2.59V373.82a4.06,4.06,0,0,1,1.54,3.24v6.09c0,4.6,3.36,8.34,7.49,8.34s7.49-3.74,7.49-8.34V362.53a1.82,1.82,0,0,0,.92.25,1.88,1.88,0,0,0,1.4-.65A2.39,2.39,0,0,0,870.57,359Zm-43.25-1.09h20.45v10.56H827.32Zm3.45-10.07h13.56a3.66,3.66,0,0,1,3.45,3.84v1.81H827.32v-1.81A3.66,3.66,0,0,1,830.77,347.85ZM827.32,394V372.9h20.45V394Z" transform="translate(-6.8 -316.73)"/>
    <path class="cls-5" d="M820.1,377.19c0-.05,0-.11,0-.16V364.52a2.23,2.23,0,0,0-1.23-2,1.84,1.84,0,0,0-2.16.48L811,369.29a2.39,2.39,0,0,0,0,3.13l5.69,6.34a1.89,1.89,0,0,0,1.4.65h0A2.11,2.11,0,0,0,820.1,377.19Z" transform="translate(-6.8 -316.73)"/>
  </g>
  <path class="cls-2" d="M928.81,377.12a5.09,5.09,0,1,0,0,7.2A5.1,5.1,0,0,0,928.81,377.12Zm-2,5.23a2.31,2.31,0,1,1,0-3.27A2.32,2.32,0,0,1,926.85,382.36Z" transform="translate(-6.8 -316.73)"/>
  <path class="cls-2" d="M935.68,384a3.71,3.71,0,0,0-5.23,0,1.39,1.39,0,0,0,2,2,.93.93,0,1,1,.59,1.58l-5.08-.35a1.39,1.39,0,0,0-1.08,2.37l3.27,3.27a1.39,1.39,0,0,0,2-2l-.65-.65,1.38.09a3.7,3.7,0,0,0,2.87-6.31Z" transform="translate(-6.8 -316.73)"/>
  <path class="cls-2" d="M970.89,339.35l-2.62-2.62a5.05,5.05,0,0,0-3.6-1.49h0a5.05,5.05,0,0,0-3.61,1.54,3.24,3.24,0,0,0-.14,4.32,2.87,2.87,0,0,0,.52,3.15l-2,2-.33-.33a3.24,3.24,0,0,0-4.58,0l-.91.91a16.36,16.36,0,0,0-18.85,3.14L931,353.74h0L907.42,377.3h0l-2.62,2.62a12.51,12.51,0,0,0,0,17.67l5.23,5.23a12.51,12.51,0,0,0,17.67,0l30.1-30.1A16.19,16.19,0,0,0,960.3,353a1.39,1.39,0,0,0-2.39,1.41,13.41,13.41,0,0,1-2.07,16.3l-2.94,2.94-4.32-4.32a1.39,1.39,0,1,0-2,2l4.32,4.32-21.59,21.59L925,392.94a1.39,1.39,0,1,0-2,2l4.32,4.32-1.64,1.64a9.72,9.72,0,0,1-13.74,0l-5.23-5.23a9.72,9.72,0,0,1,0-13.74l1.64-1.64,6.87,6.87a1.39,1.39,0,1,0,2-2l-6.87-6.87L932,356.69l6.87,6.87a1.39,1.39,0,0,0,2-2l-6.87-6.87,2.81-2.81A13.57,13.57,0,0,1,953,349.63l1.57,1.56a1.39,1.39,0,1,0,2-2l-.72-.71.66-.66a.46.46,0,0,1,.65,0l2.62,2.62a.46.46,0,0,1,.13.36,1.39,1.39,0,0,0,2.77.21,3.23,3.23,0,0,0-.31-1.65l1.5,1.5-.33.33a1.39,1.39,0,0,0,2,2l2.62-2.62a1.39,1.39,0,0,0-2-2l-.33.33-2.58-2.58.13-.13a2.87,2.87,0,0,0,3.15.52,3.25,3.25,0,0,0,2.09.76,3.19,3.19,0,0,0,2.23-.9,5.09,5.09,0,0,0,0-7.25Zm-2,5.26a.45.45,0,0,1-.63,0l-.39-.39a1.76,1.76,0,0,0-2.48,0l.26-.26-2-2-.26.26a1.76,1.76,0,0,0,0-2.48l-.39-.39a.45.45,0,0,1,0-.63,2.3,2.3,0,0,1,1.64-.7h0a2.3,2.3,0,0,1,1.64.68l2.62,2.62a2.31,2.31,0,0,1,0,3.29Z" transform="translate(-6.8 -316.73)"/>
  <path class="cls-6" d="M784.22,653.82v-3.91a4.1,4.1,0,0,0-4.27-3.91H767.14a4.1,4.1,0,0,0-4.27,3.91v3.91H737.26v-3.91A4.1,4.1,0,0,0,733,646H720.18a4.1,4.1,0,0,0-4.27,3.91v3.91c-4.71,0-8.54,3.5-8.54,7.81v43c0,4.31,3.83,7.81,8.54,7.81h68.31c4.71,0,8.54-3.51,8.54-7.81v-43C792.76,657.33,788.92,653.82,784.22,653.82Zm-17.08-3.91h12.81v3.91H767.14v-3.91Zm-47,0H733v3.91H720.18Zm68.31,54.69a4.1,4.1,0,0,1-4.27,3.91H715.91a4.1,4.1,0,0,1-4.27-3.91V665.54h76.85Zm-76.85-43a4.1,4.1,0,0,1,4.27-3.91h68.31a4.1,4.1,0,0,1,4.27,3.91Z" transform="translate(-6.8 -316.73)"/>
  <polygon class="cls-6" points="768.88 368.34 768.88 362.48 764.62 362.48 764.62 368.34 758.21 368.34 758.21 372.25 764.62 372.25 764.62 378.11 768.88 378.11 768.88 372.25 775.29 372.25 775.29 368.34 768.88 368.34"/>
  <rect class="cls-6" x="711.25" y="368.34" width="17.08" height="3.91"/>
  <g>
    <path class="cls-2" d="M638.41,589H284a7.64,7.64,0,0,0,0,15.27H638.41a7.64,7.64,0,0,0,0-15.27Z" transform="translate(-6.8 -316.73)"/>
    <path class="cls-2" d="M579.26,614.48H343.14a7.64,7.64,0,0,0,0,15.27H579.26a7.64,7.64,0,0,0,0-15.27Z" transform="translate(-6.8 -316.73)"/>
    <path class="cls-2" d="M618.53,407.07c-42-43.48-97.9-67.43-157.33-67.43s-115.31,23.95-157.33,67.43-65.17,101.3-65.17,162.79a7.51,7.51,0,0,0,7.38,7.63H676.32a7.51,7.51,0,0,0,7.38-7.63c0-61.49-23.14-119.31-65.17-162.79ZM528.28,511.26a92.16,92.16,0,0,1,20.45,51H479l49.26-51Zm-70.13,51H373.67C377.43,515.67,415.25,479,461.2,479a85.73,85.73,0,0,1,56.65,21.48Zm105.38,0a107.65,107.65,0,0,0-24.78-61.8l19.37-20a7.82,7.82,0,0,0,0-10.8,7.21,7.21,0,0,0-10.44,0l-19.37,20a100.2,100.2,0,0,0-67.11-25.92c-54.09,0-98.54,43.54-102.33,98.52H275.18a198.44,198.44,0,0,1,4.42-34.81l23,6.37a7.17,7.17,0,0,0,1.92.26,7.43,7.43,0,0,0,7.12-5.66,7.67,7.67,0,0,0-5.22-9.35l-23-6.37a195.25,195.25,0,0,1,13-32.41L317,492.54a7.15,7.15,0,0,0,3.68,1,7.34,7.34,0,0,0,6.4-3.82,7.78,7.78,0,0,0-2.7-10.43L303.83,467a193.18,193.18,0,0,1,20.67-27.81l16.76,17.34a7.21,7.21,0,0,0,10.44,0,7.82,7.82,0,0,0,0-10.8l-16.76-17.34A188.26,188.26,0,0,1,361.83,407l11.86,21.25a7.33,7.33,0,0,0,6.4,3.82,7.16,7.16,0,0,0,3.68-1,7.78,7.78,0,0,0,2.7-10.43l-11.88-21.28a181.67,181.67,0,0,1,31.33-13.47l6.16,23.75a7.43,7.43,0,0,0,7.12,5.66,7.12,7.12,0,0,0,1.92-.26,7.67,7.67,0,0,0,5.22-9.35l-6.16-23.77a179.85,179.85,0,0,1,33.65-4.55V402a7.38,7.38,0,1,0,14.76,0V377.4A179.74,179.74,0,0,1,502.23,382l-6.16,23.76a7.67,7.67,0,0,0,5.22,9.35,7.17,7.17,0,0,0,1.92.26,7.43,7.43,0,0,0,7.12-5.66l6.16-23.75a181.73,181.73,0,0,1,31.34,13.47l-11.88,21.27a7.78,7.78,0,0,0,2.7,10.43,7.15,7.15,0,0,0,3.68,1,7.33,7.33,0,0,0,6.4-3.82L560.58,407a188.27,188.27,0,0,1,26.88,21.38L570.7,445.77a7.82,7.82,0,0,0,0,10.8,7.21,7.21,0,0,0,10.44,0l16.75-17.34A193.25,193.25,0,0,1,618.56,467L598,479.31a7.78,7.78,0,0,0-2.7,10.43,7.33,7.33,0,0,0,6.4,3.82,7.15,7.15,0,0,0,3.68-1L626,480.25a195.16,195.16,0,0,1,13,32.42L616,519a7.67,7.67,0,0,0-5.22,9.35,7.43,7.43,0,0,0,7.12,5.66,7.13,7.13,0,0,0,1.92-.26l23-6.37a198.43,198.43,0,0,1,4.42,34.81H563.53Zm98.44,0C658.07,451.12,569.52,362,461.2,362S264.32,451.12,260.42,562.23h-6.84c3.9-115,95.53-207.32,207.62-207.32s203.72,92.31,207.62,207.32Z" transform="translate(-6.8 -316.73)"/>
  </g>
  <g>
    <path class="cls-7" d="M257.15,660.36l3.78-11a1.84,1.84,0,0,1,.68-.91,2.27,2.27,0,0,1,1.24-.28h2.88a1.12,1.12,0,0,1,.85.31,1.25,1.25,0,0,1,.29.89,1.06,1.06,0,0,1-.36.92,2.45,2.45,0,0,1-1.33.25h-.28l.49,16h.4a3.09,3.09,0,0,1,1.53.25,1.06,1.06,0,0,1,.39,1,1.29,1.29,0,0,1-.32.94,1.22,1.22,0,0,1-.91.33h-4.94a2.43,2.43,0,0,1-1.39-.28,1.16,1.16,0,0,1-.37-1,1,1,0,0,1,.44-.95,3.65,3.65,0,0,1,1.69-.26h.76l-.37-15.12-3.48,10.11a2.1,2.1,0,0,1-.65,1,2,2,0,0,1-1.16.28,1.85,1.85,0,0,1-1.13-.29,2.06,2.06,0,0,1-.63-1l-3.53-10.11-.32,15.12h1.18a2.77,2.77,0,0,1,1.46.28,1,1,0,0,1,.42.93,1.16,1.16,0,0,1-.37,1,2.47,2.47,0,0,1-1.41.28h-4.92a1.23,1.23,0,0,1-.92-.32,1.31,1.31,0,0,1-.31-.95,1.06,1.06,0,0,1,.39-1,3.09,3.09,0,0,1,1.53-.25h.39l.51-16h-.28a2.5,2.5,0,0,1-1.34-.25,1,1,0,0,1-.37-.92,1.22,1.22,0,0,1,.3-.89,1.15,1.15,0,0,1,.86-.31h2.88a2.27,2.27,0,0,1,1.24.28,1.76,1.76,0,0,1,.66.91Z" transform="translate(-6.8 -316.73)"/>
    <path class="cls-7" d="M280.35,666.53H286a1.49,1.49,0,0,1,1,.29,1.18,1.18,0,0,1,.33.92,1.29,1.29,0,0,1-.31,1,1.75,1.75,0,0,1-1.13.27H272.26a1.53,1.53,0,0,1-1.05-.32,1.21,1.21,0,0,1-.35-.95,1.11,1.11,0,0,1,.37-.91,1.73,1.73,0,0,1,1.11-.3h5.36V655.25h-3.44a1.65,1.65,0,0,1-1.1-.32,1.35,1.35,0,0,1,0-1.85,1.57,1.57,0,0,1,1.05-.31h5.15a1.27,1.27,0,0,1,.75.19.61.61,0,0,1,.27.53Zm-3.25-18.83a5.07,5.07,0,0,1,.34-2.39,1.71,1.71,0,0,1,1.47-.49,1.88,1.88,0,0,1,1.44.41,3.45,3.45,0,0,1,.35,2,3.28,3.28,0,0,1-.33,1.87,2.06,2.06,0,0,1-1.47.36,2.22,2.22,0,0,1-1.47-.33A2,2,0,0,1,277.1,647.71Z" transform="translate(-6.8 -316.73)"/>
    <path class="cls-7" d="M299.14,648.53h-3a5,5,0,0,1-2.14-.27,1.08,1.08,0,0,1-.43-1,1.2,1.2,0,0,1,.36-.95,1.54,1.54,0,0,1,1-.32h5.8a1.23,1.23,0,0,1,.74.19.62.62,0,0,1,.26.53v19.81h5.52a1.39,1.39,0,0,1,1,.29,1.22,1.22,0,0,1,.31.92,1.31,1.31,0,0,1-.3,1,1.71,1.71,0,0,1-1.12.27h-13a1.54,1.54,0,0,1-1-.32,1.2,1.2,0,0,1-.36-.95,1.11,1.11,0,0,1,.37-.91,1.73,1.73,0,0,1,1.11-.3h4.87Z" transform="translate(-6.8 -316.73)"/>
    <path class="cls-7" d="M316,661.67a5.37,5.37,0,0,0,1.71,3.92A6.28,6.28,0,0,0,322,667a11,11,0,0,0,4.48-1.1,12.14,12.14,0,0,1,2.94-1.1,1.23,1.23,0,0,1,.88.33,1.09,1.09,0,0,1,.35.83,1.38,1.38,0,0,1-.37.93,3.84,3.84,0,0,1-1.18.82,17.93,17.93,0,0,1-3.63,1.31,15.73,15.73,0,0,1-3.72.45,8.88,8.88,0,0,1-6.42-2.31,8.1,8.1,0,0,1-2.41-6.13,8.26,8.26,0,0,1,2.55-6.29,9.28,9.28,0,0,1,6.64-2.41,8.73,8.73,0,0,1,6.15,2.25,7.14,7.14,0,0,1,2.44,5.45,1.65,1.65,0,0,1-.41,1.32,4.42,4.42,0,0,1-2.24.33H316Zm.09-2.3h11.44a5.11,5.11,0,0,0-1.75-3.37,5.41,5.41,0,0,0-3.65-1.27,6.27,6.27,0,0,0-3.94,1.23A5.81,5.81,0,0,0,316.07,659.36Z" transform="translate(-6.8 -316.73)"/>
    <path class="cls-7" d="M335.86,667.75v-3.13a1.68,1.68,0,0,1,.29-1.11,1.18,1.18,0,0,1,.94-.33q.72,0,1.14,1a5.13,5.13,0,0,0,.51.9,5,5,0,0,0,2.18,1.52,8.56,8.56,0,0,0,3.18.57,5.28,5.28,0,0,0,3-.76,2.3,2.3,0,0,0,1.13-2,1.89,1.89,0,0,0-.91-1.78,6.58,6.58,0,0,0-3.1-.53h-1a9.9,9.9,0,0,1-5.47-1.25,4.08,4.08,0,0,1-1.88-3.62,4.14,4.14,0,0,1,1.84-3.6,8.92,8.92,0,0,1,5.16-1.28,10.61,10.61,0,0,1,2.76.38q1.41.38,1.48.38a1.89,1.89,0,0,0,.74-.34,2,2,0,0,1,1.07-.34,1,1,0,0,1,.89.44,2.42,2.42,0,0,1,.29,1.32v2.06a2.46,2.46,0,0,1-.28,1.34,1,1,0,0,1-.9.41q-.53,0-1.3-.9a12.1,12.1,0,0,0-.9-.93,5.82,5.82,0,0,0-2-1.24,7.35,7.35,0,0,0-2.48-.38,4.45,4.45,0,0,0-2.66.73,2.2,2.2,0,0,0-1,1.85,1.63,1.63,0,0,0,1,1.58,13.76,13.76,0,0,0,4.46.54,9.87,9.87,0,0,1,5.34,1.27,4.17,4.17,0,0,1,1.69,3.67,4.54,4.54,0,0,1-1.86,3.8,8.08,8.08,0,0,1-5,1.42,15.17,15.17,0,0,1-2.23-.18q-1.23-.18-3.09-.62a8.37,8.37,0,0,1-1.05.61,1.85,1.85,0,0,1-.74.2,1.11,1.11,0,0,1-.94-.43A2,2,0,0,1,335.86,667.75Z" transform="translate(-6.8 -316.73)"/>
    <path class="cls-7" d="M361.68,656.41a2.92,2.92,0,0,1,1-2.25,3.54,3.54,0,0,1,2.49-.88,3.6,3.6,0,0,1,2.51.86,3.17,3.17,0,0,1,0,4.54,4.06,4.06,0,0,1-5,0A2.92,2.92,0,0,1,361.68,656.41Zm0,9.72a2.92,2.92,0,0,1,1-2.25,3.54,3.54,0,0,1,2.49-.88,3.6,3.6,0,0,1,2.51.86,3.17,3.17,0,0,1,0,4.54,4.06,4.06,0,0,1-5,0A2.92,2.92,0,0,1,361.68,666.13Z" transform="translate(-6.8 -316.73)"/>
    <path class="cls-7" d="M404.82,657.65a6.39,6.39,0,0,1-2.57-2.14,5.31,5.31,0,0,1-.86-3,5.75,5.75,0,0,1,2-4.48,8,8,0,0,1,10,0,5.52,5.52,0,0,1,2,4.29,5.73,5.73,0,0,1-.84,3.18,6.16,6.16,0,0,1-2.62,2.15,5.84,5.84,0,0,1,2.72,2.12,5.69,5.69,0,0,1,.95,3.28,6.11,6.11,0,0,1-2,4.72,7.37,7.37,0,0,1-5.18,1.83,7.29,7.29,0,0,1-5.17-1.84,6.22,6.22,0,0,1-2-4.78,5.54,5.54,0,0,1,.95-3.19A6,6,0,0,1,404.82,657.65Zm-.76,5.32a4.07,4.07,0,0,0,1.17,3,4.21,4.21,0,0,0,3.1,1.16,4.31,4.31,0,0,0,3.12-1.12,4,4,0,0,0,1.17-3,3.9,3.9,0,0,0-1.2-3,4.79,4.79,0,0,0-6.17,0A3.8,3.8,0,0,0,404.06,663Zm.18-10.47a3.79,3.79,0,0,0,1.15,2.85,4.47,4.47,0,0,0,5.91,0,3.84,3.84,0,0,0,1.15-2.88,3.7,3.7,0,0,0-1.15-2.79,4.52,4.52,0,0,0-5.92,0A3.76,3.76,0,0,0,404.24,652.5Z" transform="translate(-6.8 -316.73)"/>
    <path class="cls-7" d="M429.52,669a1.75,1.75,0,0,1-1.14-.27,1.31,1.31,0,0,1-.3-1,1.22,1.22,0,0,1,.31-.92,1.42,1.42,0,0,1,1-.29h2v-3h-8.21a.86.86,0,0,1-.69-.28,1.19,1.19,0,0,1-.25-.81v-1.21a2.7,2.7,0,0,1,.51-1.48l.14-.23L430.34,647a2,2,0,0,1,.4-.56.67.67,0,0,1,.42-.12l.37,0,.14,0,1.79.28a.55.55,0,0,1,.4.27,1.16,1.16,0,0,1,.15.62v13.36h.9a.68.68,0,0,0,.6-.31.59.59,0,0,1,.47-.31.79.79,0,0,1,.6.26.92.92,0,0,1,.25.65,2.2,2.2,0,0,1,0,.29,1.25,1.25,0,0,1-.07.27l-.14.72a1.65,1.65,0,0,1-.36.86,1,1,0,0,1-.75.23H434v3h.62a3.08,3.08,0,0,1,1.55.27,1,1,0,0,1,.42.94,1.21,1.21,0,0,1-.35.95,1.53,1.53,0,0,1-1.05.32Zm1.9-8.1V649l-6.66,11.92Z" transform="translate(-6.8 -316.73)"/>
    <path class="cls-7" d="M448,657.65a6.39,6.39,0,0,1-2.57-2.14,5.31,5.31,0,0,1-.86-3,5.75,5.75,0,0,1,2-4.48,8,8,0,0,1,10,0,5.52,5.52,0,0,1,2,4.29,5.73,5.73,0,0,1-.84,3.18,6.16,6.16,0,0,1-2.62,2.15,5.84,5.84,0,0,1,2.72,2.12,5.69,5.69,0,0,1,.95,3.28,6.11,6.11,0,0,1-2,4.72,7.37,7.37,0,0,1-5.18,1.83,7.29,7.29,0,0,1-5.17-1.84,6.22,6.22,0,0,1-2-4.78,5.54,5.54,0,0,1,.95-3.19A6,6,0,0,1,448,657.65Zm-.76,5.32a4.07,4.07,0,0,0,1.17,3,4.21,4.21,0,0,0,3.1,1.16,4.31,4.31,0,0,0,3.12-1.12,4,4,0,0,0,1.17-3,3.9,3.9,0,0,0-1.2-3,4.79,4.79,0,0,0-6.17,0A3.8,3.8,0,0,0,447.27,663Zm.18-10.47a3.79,3.79,0,0,0,1.15,2.85,4.47,4.47,0,0,0,5.91,0,3.84,3.84,0,0,0,1.15-2.88,3.7,3.7,0,0,0-1.15-2.79,4.52,4.52,0,0,0-5.92,0A3.76,3.76,0,0,0,447.45,652.5Z" transform="translate(-6.8 -316.73)"/>
    <path class="cls-7" d="M477.15,658.4a6.53,6.53,0,0,1-2.09,1.81,5.34,5.34,0,0,1-2.51.6,6.21,6.21,0,0,1-4.72-2.08,7.23,7.23,0,0,1-1.94-5.12,7.54,7.54,0,0,1,1.87-5.26,6.18,6.18,0,0,1,4.79-2.07A6.65,6.65,0,0,1,478.1,649a11.8,11.8,0,0,1,2.11,7.34q0,6-3.08,9.62a10.33,10.33,0,0,1-8.25,3.59,6.15,6.15,0,0,1-2.17-.25.91.91,0,0,1-.54-.91q0-1.12,2.09-1.18a13.82,13.82,0,0,0,2.2-.19A7.14,7.14,0,0,0,475,664.3,11.94,11.94,0,0,0,477.15,658.4Zm-.37-4.71a5.3,5.3,0,0,0-1.15-3.54,3.68,3.68,0,0,0-2.94-1.36,3.4,3.4,0,0,0-2.76,1.28,5.12,5.12,0,0,0-1.05,3.36,5.31,5.31,0,0,0,1.11,3.49,3.52,3.52,0,0,0,2.85,1.34,3.59,3.59,0,0,0,2.83-1.29A4.81,4.81,0,0,0,476.78,653.68Z" transform="translate(-6.8 -316.73)"/>
    <path class="cls-7" d="M494.75,669.59a5.93,5.93,0,0,1-5.25-3.12q-1.94-3.12-1.94-8.55t1.94-8.53a6,6,0,0,1,10.5,0q2,3.13,2,8.53t-2,8.53A6,6,0,0,1,494.75,669.59Zm0-20.81q-2,0-3.15,2.39a20.93,20.93,0,0,0,0,13.54q1.13,2.4,3.15,2.4t3.16-2.4a20.93,20.93,0,0,0,0-13.54Q496.79,648.78,494.75,648.78Z" transform="translate(-6.8 -316.73)"/>
    <path class="cls-7" d="M516.35,669.59a5.93,5.93,0,0,1-5.25-3.12q-1.94-3.12-1.94-8.55t1.94-8.53a6,6,0,0,1,10.5,0q2,3.13,2,8.53t-2,8.53A6,6,0,0,1,516.35,669.59Zm0-20.81q-2,0-3.15,2.39a20.93,20.93,0,0,0,0,13.54q1.13,2.4,3.15,2.4t3.16-2.4a20.93,20.93,0,0,0,0-13.54Q518.39,648.78,516.35,648.78Z" transform="translate(-6.8 -316.73)"/>
  </g>
  <path class="cls-8" d="M920.91,679.21V662a4.31,4.31,0,0,0-4.31-4.31H880v-4.31h12.92a2.15,2.15,0,0,0,0-4.31H862.76a2.15,2.15,0,1,0,0,4.31h12.92v4.31H852a4.31,4.31,0,0,0-4.31,4.31v15.07h-4.31V664.14a2.15,2.15,0,1,0-4.31,0v30.15a2.15,2.15,0,0,0,4.31,0V681.37h4.31v15.07a4.31,4.31,0,0,0,4.31,4.31h15.44l7.35,7.35a4.31,4.31,0,0,0,3,1.26h43.07a4.31,4.31,0,0,0,4.31-4.31V683.52A4.31,4.31,0,0,0,920.91,679.21Zm0,25.84H877.84l-8.61-8.61H852V662h64.6v21.53h4.31Z" transform="translate(-6.8 -316.73)"/>
  <rect class="oil" x="711.25" y="98.48" width="58.19" height="206.9" rx="12" ry="12"/> <!-- oil -->
  <rect class="o2" x="896.04" y="99.39" width="58.19" height="206.9" rx="12" ry="12"/> <!-- 02 -->
  <rect class="gas" x="805.24" y="99.06" width="58.19" height="206.9" rx="12" ry="12"/> <!-- gas -->
  <g>
    <path class="cls-7" d="M257,705.6h.69a1.62,1.62,0,0,1,1.07.29,1.16,1.16,0,0,1,.33.92,1.29,1.29,0,0,1-.32.94,1.22,1.22,0,0,1-.91.33h-8.67a1.22,1.22,0,0,1-.91-.33,1.29,1.29,0,0,1-.32-.94,1.14,1.14,0,0,1,.34-.93,1.87,1.87,0,0,1,1.17-.28h1.69V689.76H250a3.41,3.41,0,0,1-1.71-.27,1.15,1.15,0,0,1-.38-1,1.29,1.29,0,0,1,.32-.94,1.22,1.22,0,0,1,.91-.33h15.56a1.12,1.12,0,0,1,.91.36,1.57,1.57,0,0,1,.31,1v4.54a1.25,1.25,0,0,1-.31.92,1.23,1.23,0,0,1-.91.31,1.13,1.13,0,0,1-1-.39,3.62,3.62,0,0,1-.26-1.74v-2.51h-9.54v5.92h4.64v-.46a4,4,0,0,1,.25-1.72.92.92,0,0,1,.88-.44,1,1,0,0,1,.82.33,1.78,1.78,0,0,1,.25,1.07v4.46a2.22,2.22,0,0,1-.24,1.21,1,1,0,0,1-.83.33.92.92,0,0,1-.88-.44,4,4,0,0,1-.25-1.72v-.51h-4.64v7.79Z" transform="translate(-6.8 -316.73)"/>
    <path class="cls-7" d="M278.75,699.43l3.78-11a1.84,1.84,0,0,1,.68-.91,2.27,2.27,0,0,1,1.24-.28h2.88a1.12,1.12,0,0,1,.85.31,1.25,1.25,0,0,1,.29.89,1.06,1.06,0,0,1-.36.92,2.45,2.45,0,0,1-1.33.25h-.28l.49,16h.4a3.09,3.09,0,0,1,1.53.25,1.06,1.06,0,0,1,.39,1,1.29,1.29,0,0,1-.32.94,1.22,1.22,0,0,1-.91.33h-4.94a2.43,2.43,0,0,1-1.39-.28,1.16,1.16,0,0,1-.37-1,1,1,0,0,1,.44-.95,3.65,3.65,0,0,1,1.69-.26h.76l-.37-15.12-3.48,10.11a2.1,2.1,0,0,1-.65,1,2,2,0,0,1-1.16.28,1.85,1.85,0,0,1-1.12-.29,2.06,2.06,0,0,1-.63-1l-3.53-10.11L273,705.6h1.18a2.77,2.77,0,0,1,1.46.28,1,1,0,0,1,.42.93,1.16,1.16,0,0,1-.37,1,2.47,2.47,0,0,1-1.41.28h-4.92a1.23,1.23,0,0,1-.92-.32,1.31,1.31,0,0,1-.31-.95,1.06,1.06,0,0,1,.39-1,3.09,3.09,0,0,1,1.53-.25h.39l.51-16h-.28a2.5,2.5,0,0,1-1.34-.25,1,1,0,0,1-.37-.92,1.22,1.22,0,0,1,.3-.89,1.15,1.15,0,0,1,.86-.31H273a2.27,2.27,0,0,1,1.24.28,1.76,1.76,0,0,1,.66.91Z" transform="translate(-6.8 -316.73)"/>
  </g>
</svg>
